<?xml version="1.0" encoding="UTF-8" standalone="no"?>
<svg
   xmlns:dc="http://purl.org/dc/elements/1.1/"
   xmlns:cc="http://creativecommons.org/ns#"
   xmlns:rdf="http://www.w3.org/1999/02/22-rdf-syntax-ns#"
   xmlns:svg="http://www.w3.org/2000/svg"
   xmlns="http://www.w3.org/2000/svg"
   xmlns:xlink="http://www.w3.org/1999/xlink"
   xmlns:sodipodi="http://sodipodi.sourceforge.net/DTD/sodipodi-0.dtd"
   xmlns:inkscape="http://www.inkscape.org/namespaces/inkscape"
   version="1.1"
   width="13.999987cm"
   height="7.30003cm"
   viewBox="0 0 396.85 206.93"
   id="svg286"
   sodipodi:docname="hv-gr12-u11-t01.svg"
   inkscape:version="0.92.1 r15371">
  <metadata
     id="metadata292">
    <rdf:RDF>
      <cc:Work
         rdf:about="">
        <dc:format>image/svg+xml</dc:format>
        <dc:type
           rdf:resource="http://purl.org/dc/dcmitype/StillImage" />
        <dc:title></dc:title>
      </cc:Work>
    </rdf:RDF>
  </metadata>
  <defs
     id="defs290" />
  <sodipodi:namedview
     pagecolor="#ffffff"
     bordercolor="#666666"
     borderopacity="1"
     objecttolerance="10"
     gridtolerance="10"
     guidetolerance="10"
     inkscape:pageopacity="0"
     inkscape:pageshadow="2"
     inkscape:window-width="1920"
     inkscape:window-height="986"
     id="namedview288"
     showgrid="false"
     inkscape:zoom="1.7107235"
     inkscape:cx="254.67474"
     inkscape:cy="139.82015"
     inkscape:window-x="-11"
     inkscape:window-y="-11"
     inkscape:window-maximized="1"
     inkscape:current-layer="svg286" />
  <path
     transform="matrix(.1,0,0,-.1,0,206.93)"
     stroke-width="20"
     stroke-linecap="butt"
     stroke-miterlimit="4"
     stroke-linejoin="miter"
     fill="none"
     stroke="rgb(35,31,32)"
     d="M 3858.4 327.879 L 456.902 327.879 L 456.91 2028.54 "
     id="path2" />
  <path
     transform="matrix(.1,0,0,-.1,0,206.93)"
     stroke-width="5"
     stroke-linecap="round"
     stroke-dasharray="0,10"
     stroke-linejoin="round"
     fill="none"
     stroke="rgb(35,31,32)"
     d="M 456.902 611.34 L 3858.4 611.34 "
     id="path4" />
  <path
     transform="matrix(.1,0,0,-.1,0,206.93)"
     stroke-width="5"
     stroke-linecap="round"
     stroke-dasharray="0,10"
     stroke-linejoin="round"
     fill="none"
     stroke="rgb(35,31,32)"
     d="M 3858.4 894.82 L 456.902 894.82 "
     id="path6" />
  <path
     transform="matrix(.1,0,0,-.1,0,206.93)"
     stroke-width="5"
     stroke-linecap="round"
     stroke-dasharray="0,10"
     stroke-linejoin="round"
     fill="none"
     stroke="rgb(35,31,32)"
     d="M 456.902 1178.27 L 3858.4 1178.27 "
     id="path8" />
  <path
     transform="matrix(.1,0,0,-.1,0,206.93)"
     stroke-width="5"
     stroke-linecap="round"
     stroke-dasharray="0,10"
     stroke-linejoin="round"
     fill="none"
     stroke="rgb(35,31,32)"
     d="M 3858.4 1461.73 L 456.902 1461.73 "
     id="path10" />
  <path
     transform="matrix(.1,0,0,-.1,0,206.93)"
     stroke-width="5"
     stroke-linecap="round"
     stroke-dasharray="0,10"
     stroke-linejoin="round"
     fill="none"
     stroke="rgb(35,31,32)"
     d="M 456.902 1745.2 L 3858.4 1745.2 "
     id="path12" />
  <path
     transform="matrix(.1,0,0,-.1,0,206.93)"
     stroke-width="5"
     stroke-linecap="round"
     stroke-dasharray="0,10"
     stroke-linejoin="round"
     fill="none"
     stroke="rgb(35,31,32)"
     d="M 740.371 327.879 L 740.371 2028.54 "
     id="path14" />
  <path
     transform="matrix(.1,0,0,-.1,0,206.93)"
     stroke-width="5"
     stroke-linecap="round"
     stroke-dasharray="0,10"
     stroke-linejoin="round"
     fill="none"
     stroke="rgb(35,31,32)"
     d="M 1023.83 327.879 L 1023.83 2028.53 "
     id="path16" />
  <path
     transform="matrix(.1,0,0,-.1,0,206.93)"
     stroke-width="5"
     stroke-linecap="round"
     stroke-dasharray="0,10"
     stroke-linejoin="round"
     fill="none"
     stroke="rgb(35,31,32)"
     d="M 1307.29 327.879 L 1307.29 2028.53 "
     id="path18" />
  <path
     transform="matrix(.1,0,0,-.1,0,206.93)"
     stroke-width="5"
     stroke-linecap="round"
     stroke-dasharray="0,10"
     stroke-linejoin="round"
     fill="none"
     stroke="rgb(35,31,32)"
     d="M 2725 328.629 L 2725 2029.29 "
     id="path20" />
  <path
     transform="matrix(.1,0,0,-.1,0,206.93)"
     stroke-width="5"
     stroke-linecap="round"
     stroke-dasharray="0,10"
     stroke-linejoin="round"
     fill="none"
     stroke="rgb(35,31,32)"
     d="M 1874.22 327.879 L 1874.22 2028.53 "
     id="path22" />
  <path
     transform="matrix(.1,0,0,-.1,0,206.93)"
     stroke-width="5"
     stroke-linecap="round"
     stroke-dasharray="0,10"
     stroke-linejoin="round"
     fill="none"
     stroke="rgb(35,31,32)"
     d="M 2157.68 327.879 L 2157.68 2028.54 "
     id="path24" />
  <path
     transform="matrix(.1,0,0,-.1,0,206.93)"
     stroke-width="5"
     stroke-linecap="round"
     stroke-dasharray="0,10"
     stroke-linejoin="round"
     fill="none"
     stroke="rgb(35,31,32)"
     d="M 2441.54 328.629 L 2441.54 2029.29 "
     id="path26" />
  <path
     transform="matrix(.1,0,0,-.1,0,206.93)"
     stroke-width="5"
     stroke-linecap="round"
     stroke-dasharray="0,10"
     stroke-linejoin="round"
     fill="none"
     stroke="rgb(35,31,32)"
     d="M 1591.14 328.629 L 1591.14 2029.29 "
     id="path28" />
  <path
     transform="matrix(.1,0,0,-.1,0,206.93)"
     stroke-width="5"
     stroke-linecap="round"
     stroke-dasharray="0,10"
     stroke-linejoin="round"
     fill="none"
     stroke="rgb(35,31,32)"
     d="M 3008.48 328.629 L 3008.48 2029.29 "
     id="path30" />
  <path
     transform="matrix(.1,0,0,-.1,0,206.93)"
     stroke-width="5"
     stroke-linecap="round"
     stroke-dasharray="0,10"
     stroke-linejoin="round"
     fill="none"
     stroke="rgb(35,31,32)"
     d="M 3291.93 328.629 L 3291.93 2029.29 "
     id="path32" />
  <path
     transform="matrix(.1,0,0,-.1,0,206.93)"
     stroke-width="5"
     stroke-linecap="round"
     stroke-dasharray="0,10"
     stroke-linejoin="round"
     fill="none"
     stroke="rgb(35,31,32)"
     d="M 457.379 2029.29 L 3858.89 2029.29 "
     id="path34" />
  <path
     transform="matrix(.1,0,0,-.1,0,206.93)"
     stroke-width="5"
     stroke-linecap="round"
     stroke-dasharray="0,10"
     stroke-linejoin="round"
     fill="none"
     stroke="rgb(35,31,32)"
     d="M 3573.69 325.5 L 3573.69 2026.16014 "
     id="path36" />
  <path
     transform="matrix(.1,0,0,-.1,0,206.93)"
     stroke-width="5"
     stroke-linecap="round"
     stroke-dasharray="0,10"
     stroke-linejoin="round"
     fill="none"
     stroke="rgb(35,31,32)"
     d="M 3857.15 325.629 L 3857.15 2026.28 "
     id="path38" />
  <text
     fill="rgb(35,31,32)"
     fill-opacity="0"
     transform="matrix(1,0,0,1,0,206.93)"
     font-size="12"
     font-family="EDMHTJ+Verdana"
     x="70.9988 30.615204 25.604655 33.236657 25.604655 33.236657 25.604655 33.236657 25.604655 33.236657"
     y="-19.5039 -56.2211 -85.5039 -85.5039 -113.5039 -113.5039 -141.5039 -141.5039 -170.5039 -170.5039"
     id="text40">
2510152025
</text>
  <symbol
     id="font_0_9">
    <path
       d="M .49100007 .08400001 L .101 .08400001 C .13300002 .11100001 .167 .141 .20400003 .17300001 C .24100003 .20500002 .277 .238 .31200004 .272 C .33600002 .296 .35700002 .31800003 .374 .337 C .39100004 .35700002 .40600003 .377 .41900004 .397 C .43200005 .418 .44300003 .441 .45000005 .46500004 C .45700002 .48900003 .46000004 .514 .46000004 .54200006 C .46000004 .60300007 .439 .652 .397 .688 C .35500002 .72400003 .29600003 .74200006 .22200003 .74200006 C .18600002 .74200006 .14900002 .73700004 .11000001 .72800007 C .072000003 .71800004 .041 .708 .018 .697 L .018 .59400006 L .023000002 .59400006 C .056 .61600008 .08900001 .632 .124000009 .642 C .15800002 .65300007 .19000003 .65800005 .22000003 .65800005 C .26400004 .65800005 .29900003 .647 .32400003 .62600003 C .34900003 .605 .36100004 .57500005 .36100004 .537 C .36100004 .49600001 .34900003 .45800004 .32600003 .42200003 C .30300003 .386 .261 .33800004 .19800002 .27800003 C .169 .24900002 .137 .22000001 .10300001 .19000001 C .067999999 .16100002 .034 .132 0 .10300001 L 0 0 L .49100007 0 L .49100007 .08400001 Z "
       id="path42" />
  </symbol>
  <symbol
     id="font_0_b">
    <path
       d="M .45200003 .352 C .43800002 .38100005 .41799999 .40400005 .39200001 .422 C .36700005 .439 .34000004 .45000005 .31 .45700002 C .28000002 .46400004 .246 .467 .20600002 .467 C .19500001 .467 .18300002 .467 .168 .46600003 C .15300001 .46500004 .139 .46400004 .125 .463 L .125 .657 L .46899997 .657 L .46899997 .74200006 L .031000004 .74200006 L .031000004 .36700005 C .049999996 .371 .073 .375 .10000001 .379 C .126 .38300002 .154 .385 .18300002 .385 C .21300002 .385 .24000003 .38200002 .264 .37700004 C .288 .37200003 .30900002 .36400003 .32600003 .351 C .34100003 .34100003 .35300005 .32700003 .362 .31 C .371 .292 .375 .27100003 .375 .246 C .375 .22000001 .371 .19800002 .36400003 .178 C .357 .15900001 .34600001 .142 .33100004 .128 C .315 .112 .29500003 .1 .274 .094000006 C .25200004 .087000008 .22900002 .08400001 .20600002 .08400001 C .172 .08400001 .13700001 .09 .100999999 .102000009 C .065 .11400001 .033999994 .12900001 .0069999991 .14600002 L 0 .14600002 L 0 .043 C .024999998 .031000002 .056999998 .021000002 .09300001 .012 C .13000001 .0039999999 .168 0 .20800002 0 C .251 0 .288 .006 .32100005 .018000001 C .35300005 .030000001 .38100005 .048 .40500002 .071 C .426 .09200001 .44300003 .11800001 .45499998 .149 C .468 .18 .47399998 .21200001 .47399998 .246 C .47399998 .28900004 .467 .324 .45200003 .352 Z "
       id="path45" />
  </symbol>
  <symbol
     id="font_0_8">
    <path
       d="M .39300004 .074 L .245 .074 L .245 .73 L .169 .73 C .16800001 .70900007 .16300002 .69200001 .15400002 .679 C .146 .66700006 .134 .656 .11900002 .648 C .10700001 .642 .089 .637 .066 .633 C .041999997 .63000007 .019999996 .628 0 .628 L 0 .56200004 L .151 .56200004 L .151 .074 L 0 .074 L 0 0 L .39300004 0 L .39300004 .074 Z "
       id="path48" />
  </symbol>
  <symbol
     id="font_0_7">
    <path
       d="M .44300004 .663 C .402 .726 .33900002 .757 .252 .757 C .165 .757 .10200001 .726 .061000004 .66400004 C .020000003 .603 0 .507 0 .37800003 C 0 .25 .020000003 .155 .060000001 .093 C .10100001 .031000002 .164 0 .252 0 C .337 0 .40100003 .031000002 .442 .09200001 C .483 .15300001 .503 .24800001 .503 .379 C .503 .50600005 .483 .6 .44300004 .663 M .328 .1 C .30800004 .087000008 .282 .081 .252 .081 C .21900001 .081 .19300002 .08800001 .17300001 .101 C .15300001 .11400001 .13800001 .134 .127 .15900001 C .11600001 .186 .10800001 .21700001 .104 .25100003 C .10100001 .28500004 .09900001 .32700003 .09900001 .37800003 C .09900001 .42400003 .10100001 .467 .105000007 .505 C .10900001 .544 .11700001 .575 .128 .59900003 C .14000001 .625 .15500002 .644 .17500001 .657 C .19600001 .67 .22100001 .676 .252 .676 C .282 .676 .30800004 .67 .328 .657 C .34700003 .644 .363 .625 .374 .6 C .386 .575 .39400003 .544 .39800004 .508 C .402 .47100001 .404 .42800003 .404 .379 C .404 .329 .402 .286 .39800004 .25 C .39400003 .215 .386 .18400002 .37500003 .158 C .36400003 .132 .34800003 .113000009 .328 .1 Z "
       id="path51" />
  </symbol>
  <use
     xlink:href="#font_0_9"
     transform="matrix(12,0,0,-12,71.9468,187.42609)"
     fill="rgb(35,31,32)"
     id="use54" />
  <use
     xlink:href="#font_0_b"
     transform="matrix(12,0,0,-12,31.707205,150.88889)"
     fill="rgb(35,31,32)"
     id="use56" />
  <use
     xlink:href="#font_0_8"
     transform="matrix(12,0,0,-12,27.236655,121.426093)"
     fill="rgb(35,31,32)"
     id="use58" />
  <use
     xlink:href="#font_0_7"
     transform="matrix(12,0,0,-12,34.040658,121.606091)"
     fill="rgb(35,31,32)"
     id="use60" />
  <use
     xlink:href="#font_0_8"
     transform="matrix(12,0,0,-12,27.236655,93.426095)"
     fill="rgb(35,31,32)"
     id="use62" />
  <use
     xlink:href="#font_0_b"
     transform="matrix(12,0,0,-12,34.328657,93.606099)"
     fill="rgb(35,31,32)"
     id="use64" />
  <use
     xlink:href="#font_0_9"
     transform="matrix(12,0,0,-12,26.552655,65.42609)"
     fill="rgb(35,31,32)"
     id="use66" />
  <use
     xlink:href="#font_0_7"
     transform="matrix(12,0,0,-12,34.040658,65.60609)"
     fill="rgb(35,31,32)"
     id="use68" />
  <use
     xlink:href="#font_0_9"
     transform="matrix(12,0,0,-12,26.552655,36.426087)"
     fill="rgb(35,31,32)"
     id="use70" />
  <use
     xlink:href="#font_0_b"
     transform="matrix(12,0,0,-12,34.328657,36.606088)"
     fill="rgb(35,31,32)"
     id="use72" />
  <text
     fill="rgb(35,31,32)"
     fill-opacity="0"
     transform="matrix(1,0,0,1,0,206.93)"
     font-size="12"
     font-family="MZWJLZ+Verdana-Italic"
     x="342.11465 346.84265 350.13064 354.25864"
     y="-4.0209046 -4.0209046 -4.0209046 -4.0209046"
     id="text74">
tijd
</text>
  <symbol
     id="font_1_3">
    <path
       d="M .18400002 .556 L .22000003 .713 L .12900001 .713 L .093 .556 L .031000004 .556 L .014000006 .48300005 L .07600001 .48300005 L .008000001 .18900001 C .0060000048 .17600002 .0040000005 .16500002 .002000004 .15400002 C .001000002 .14400001 0 .134 0 .123 C 0 .081 .012000002 .049000001 .037 .030000001 C .061000004 .010000001 .09600001 0 .141 0 C .157 0 .17500001 .0010000002 .19600001 .0040000005 C .21600002 .0070000005 .23600003 .011000001 .254 .016 L .27100003 .095000009 L .26600004 .095000009 C .26000002 .092 .24700001 .089 .22900003 .08400001 C .21100002 .079 .19500003 .077 .18100003 .077 C .14900002 .077 .127 .083000002 .115 .094000006 C .10300001 .106000009 .09700001 .124000009 .09700001 .14800002 C .09700001 .15700002 .09800001 .17000002 .101 .18700002 C .10300001 .20300001 .10600001 .21800003 .109000003 .23100002 L .167 .48300005 L .35700002 .48300005 L .374 .556 L .18400002 .556 Z "
       id="path76" />
  </symbol>
  <symbol
     id="font_1_8">
    <path
       d="M .164 .731 L .142 .63600006 L .24600002 .63600006 L .268 .731 L .164 .731 M .12600002 .545 L 0 0 L .091000004 0 L .21700001 .545 L .12600002 .545 Z "
       id="path79" />
  </symbol>
  <symbol
     id="font_1_9">
    <path
       d="M .49700003 .937000073 L .39300004 .937000073 L .37100003 .84200009 L .47500001 .84200009 L .49700003 .937000073 M .44700003 .75100003 L .24200001 .75100003 L .22500003 .67800003 L .33900002 .67800003 L .23700002 .23600002 C .23200002 .21300002 .22600001 .19200002 .22000001 .17200002 C .21400002 .15200001 .20600002 .13500002 .19700001 .121000015 C .187 .10700001 .17400001 .09600001 .15900001 .08900001 C .14400001 .08300001 .12400001 .07900001 .10200001 .07900001 C .08500001 .07900001 .07000001 .081000014 .05700001 .08500001 C .044000006 .08900001 .033000007 .09400001 .024000004 .09800001 L .019000008 .09800001 L 0 .0140000139 C .014000006 .010000005 .03100001 .0069999991 .05200001 .004000008 C .073000012 .001000002 .09000001 0 .103000018 0 C .158 0 .20400003 .016000003 .24100003 .04900001 C .278 .08200001 .30400003 .13000001 .31800003 .19300002 L .44700003 .75100003 Z "
       id="path82" />
  </symbol>
  <symbol
     id="font_1_6">
    <path
       d="M .512 .77500005 L .45700002 .538 C .43600002 .55 .41300002 .56 .38900004 .566 C .36400003 .572 .33800004 .575 .30900002 .575 C .26600004 .575 .22600001 .565 .18900001 .545 C .151 .524 .11800001 .49700003 .091 .462 C .063 .42700005 .041 .38600005 .023999997 .339 C .007999998 .29300004 0 .24300001 0 .19100001 C 0 .12900001 .015000001 .081 .045 .049000001 C .075 .016 .116000007 0 .167 0 C .197 0 .224 .005 .24900002 .015000001 C .275 .025000003 .30800004 .044 .34900003 .072000003 L .33600002 .015000001 L .42800003 .015000001 L .60300007 .77500005 L .512 .77500005 M .367 .149 C .34300003 .13300002 .31700004 .11800001 .28800002 .105000007 C .26000002 .091000004 .23200002 .08400001 .204 .08400001 C .16600001 .08400001 .13800001 .095000009 .121 .116000007 C .10400001 .13700001 .095000009 .16700001 .095000009 .207 C .095000009 .24100001 .1 .27600003 .109000003 .31200004 C .11800001 .348 .132 .379 .14900002 .40500002 C .16800001 .43300004 .19100001 .45500003 .21700001 .472 C .24400002 .48800003 .27400003 .49600006 .30800004 .49600006 C .33200002 .49600006 .35400004 .49300004 .37500003 .48800003 C .39600003 .48300005 .418 .47400003 .44000002 .463 L .367 .149 Z "
       id="path85" />
  </symbol>
  <use
     xlink:href="#font_1_3"
     transform="matrix(12,0,0,-12,342.87067,203.04109)"
     fill="rgb(35,31,32)"
     id="use88" />
  <use
     xlink:href="#font_1_8"
     transform="matrix(12,0,0,-12,347.17865,202.90909)"
     fill="rgb(35,31,32)"
     id="use90" />
  <use
     xlink:href="#font_1_9"
     transform="matrix(12,0,0,-12,348.55865,205.38109)"
     fill="rgb(35,31,32)"
     id="use92" />
  <use
     xlink:href="#font_1_6"
     transform="matrix(12,0,0,-12,354.76263,203.08908)"
     fill="rgb(35,31,32)"
     id="use94" />
  <text
     fill="rgb(35,31,32)"
     fill-opacity="0"
     transform="matrix(1,0,0,1,0,206.93)"
     font-size="10"
     font-family="EDMHTJ+Verdana"
     x=" y="
     id="text96" />
  <symbol
     id="font_0_d">
    <path
       d="M 0 0 Z "
       id="path98" />
  </symbol>
  <use
     xlink:href="#font_0_d"
     transform="matrix(10,0,0,-10,361.74396,202.90909)"
     fill="rgb(35,31,32)"
     id="use101" />
  <text
     fill="rgb(35,31,32)"
     fill-opacity="0"
     transform="matrix(1,0,0,1,0,206.93)"
     font-size="12"
     font-family="EDMHTJ+Verdana"
     x="365.25999 370.70797 378.304 385.9 391.024"
     y="-4.0209046 -4.0209046 -4.0209046 -4.0209046 -4.0209046"
     id="text103">
(uur)
</text>
  <symbol
     id="font_0_5">
    <path
       d="M .29400004 .004999995 C .26900003 .026999996 .24400002 .054999991 .21900001 .087 C .194 .120000004 .17200002 .156 .153 .19600001 C .13300002 .237 .117000009 .28100003 .105 .328 C .093 .374 .087000008 .425 .087000008 .481 C .087000008 .53400002 .093 .58500004 .105 .633 C .117000009 .681 .13300002 .725 .153 .765 C .17300001 .80700007 .19500003 .84300004 .21900001 .8740001 C .24300003 .9050001 .268 .93200007 .29400004 .956000127 L .29400004 .9610001 L .18200001 .9610001 C .125 .895 .080000009 .8230001 .048 .745 C .015999996 .66700006 0 .578 0 .481 C 0 .38300002 .015999996 .294 .048 .216 C .080000009 .13800001 .125 .066 .18200001 0 L .29400004 0 L .29400004 .004999995 Z "
       id="path105" />
  </symbol>
  <symbol
     id="font_0_4">
    <path
       d="M .45700006 .56 L .36500004 .56 L .36500004 .15300001 C .34100003 .134 .314 .11800001 .286 .106000009 C .25800002 .093 .23200002 .087000008 .208 .087000008 C .18100003 .087000008 .16100002 .09 .14700002 .097 C .13300002 .10300001 .121000015 .11400001 .11300001 .128 C .10400001 .142 .099 .15900001 .09600001 .179 C .093 .19800002 .092 .22200002 .092 .25 L .092 .56 L 0 .56 L 0 .20600002 C 0 .139 .016000003 .087000008 .048 .052 C .080000009 .017 .125 0 .18200001 0 C .21600002 0 .24800003 .007 .27600003 .020000002 C .30400003 .033 .33400002 .051000004 .36500004 .076000004 L .36500004 .015000001 L .45700006 .015000001 L .45700006 .56 Z "
       id="path108" />
  </symbol>
  <symbol
     id="font_0_3">
    <path
       d="M .34100003 .53900004 C .32700003 .541 .316 .54300004 .30900002 .544 C .30200003 .545 .29000001 .545 .27400003 .545 C .245 .545 .21600002 .53900004 .18900001 .527 C .16100002 .51500006 .12900001 .49400001 .09200001 .46500004 L .09200001 .545 L 0 .545 L 0 0 L .09200001 0 L .09200001 .38700003 C .11600001 .407 .142 .423 .16800001 .43500004 C .19500003 .448 .222 .45400004 .25100003 .45400004 C .268 .45400004 .28300002 .453 .296 .45200003 C .30900002 .45000001 .32200003 .448 .33600002 .44500003 L .34100003 .44500003 L .34100003 .53900004 Z "
       id="path111" />
  </symbol>
  <symbol
     id="font_0_6">
    <path
       d="M .24600002 .745 C .21400002 .8230001 .169 .895 .11200001 .9610001 L 0 .9610001 L 0 .956000127 C .026 .93200007 .051 .9050001 .074999996 .8740001 C .099 .84300004 .121 .80700007 .141 .765 C .16100002 .725 .17700002 .681 .18900001 .633 C .201 .58500004 .20700002 .53400002 .20700002 .481 C .20700002 .425 .201 .374 .18900001 .328 C .17700002 .28100003 .16100002 .237 .141 .19600001 C .122 .156 .1 .120000004 .074999996 .087 C .050000005 .054999991 .024999998 .026999996 0 .004999995 L 0 0 L .11200001 0 C .169 .066 .21400002 .13800001 .24600002 .216 C .27800003 .294 .29400004 .38300002 .29400004 .481 C .29400004 .578 .27800003 .66700006 .24600002 .745 Z "
       id="path114" />
  </symbol>
  <use
     xlink:href="#font_0_5"
     transform="matrix(12,0,0,-12,366.31597,205.32109)"
     fill="rgb(35,31,32)"
     id="use117" />
  <use
     xlink:href="#font_0_4"
     transform="matrix(12,0,0,-12,371.74,203.08908)"
     fill="rgb(35,31,32)"
     id="use119" />
  <use
     xlink:href="#font_0_4"
     transform="matrix(12,0,0,-12,379.336,203.08908)"
     fill="rgb(35,31,32)"
     id="use121" />
  <use
     xlink:href="#font_0_3"
     transform="matrix(12,0,0,-12,386.97997,202.90909)"
     fill="rgb(35,31,32)"
     id="use123" />
  <use
     xlink:href="#font_0_6"
     transform="matrix(12,0,0,-12,391.888,205.32109)"
     fill="rgb(35,31,32)"
     id="use125" />
  <text
     fill="rgb(35,31,32)"
     fill-opacity="0"
     transform="matrix(0,-1,1,0,0,206.93)"
     font-size="12"
     font-family="MZWJLZ+Verdana-Italic"
     x="103.39 108.118 115.27 126.946 134.422 141.574 146.698 153.91 158.638 166.234 173.82999"
     y="10.6152 10.6152 10.6152 10.6152 10.6152 10.6152 10.6152 10.6152 10.6152 10.6152 10.6152"
     id="text127">
temperatuur
</text>
  <symbol
     id="font_1_7">
    <path
       d="M .11400001 .34400005 C .12600002 .39100004 .15100001 .42900001 .187 .45700006 C .223 .48600002 .264 .5 .311 .5 C .35300002 .5 .384 .49000005 .403 .47100006 C .42200003 .45100003 .432 .42400003 .432 .38900004 C .432 .38200002 .432 .37400005 .43100003 .36800004 C .43 .36100004 .42900001 .35300002 .428 .34400005 L .11400001 .34400005 M .301 .0039999999 C .317 .007 .335 .01 .35500002 .015000001 C .375 .02 .39200001 .025 .405 .030000001 C .418 .035000005 .433 .04 .449 .046 L .469 .145 L .46400003 .145 C .43800002 .128 .40600003 .112 .368 .098000002 C .33 .08400001 .293 .07700001 .257 .07700001 C .20500002 .07700001 .165 .09 .13700001 .11600001 C .10900001 .142 .09500001 .178 .09500001 .224 C .09500001 .23200001 .09500001 .24000001 .096000014 .24900002 C .097 .25800002 .098000002 .26800004 .10000001 .277 L .503 .277 C .51000004 .30500005 .51400004 .33 .517 .35100005 C .52000003 .37200003 .521 .38700003 .521 .397 C .521 .45300003 .50500007 .49600001 .47200003 .527 C .439 .558 .391 .573 .329 .573 C .23600002 .573 .158 .53700008 .09500001 .46600003 C .032 .39400003 0 .30900002 0 .209 C 0 .141 .022000003 .089 .065 .053000002 C .10800001 .018000001 .16700001 0 .24300001 0 C .266 0 .286 .0010000002 .301 .0039999999 Z "
       id="path129" />
  </symbol>
  <symbol
     id="font_1_a">
    <path
       d="M .851 .52400007 C .827 .54800005 .791 .56 .74300004 .56 C .71000004 .56 .676 .55300003 .642 .53900004 C .607 .52500005 .569 .503 .526 .47200003 C .518 .499 .503 .521 .48000002 .537 C .45700002 .55200005 .42700001 .56 .391 .56 C .358 .56 .328 .55300003 .299 .54 C .27 .527 .23800002 .508 .20400001 .48400002 L .21800001 .545 L .12600002 .545 L 0 0 L .092 0 L .18600002 .40600003 C .22600003 .43300004 .25800002 .45100003 .282 .46100002 C .306 .47100001 .328 .476 .34800003 .476 C .375 .476 .397 .47100001 .414 .46 C .43 .44900003 .43800002 .42900001 .43800002 .39900003 C .43800002 .386 .437 .37300003 .43400002 .36 C .432 .347 .428 .33 .42400003 .31 L .352 0 L .444 0 L .524 .349 C .526 .35700002 .528 .36600004 .52900005 .377 C .531 .38700003 .532 .39600003 .532 .404 C .561 .423 .58900004 .44000002 .61800004 .455 C .647 .469 .674 .476 .70000005 .476 C .735 .476 .759 .469 .771 .45600004 C .78300005 .44300003 .79 .42400003 .79 .39900003 C .79 .386 .78800006 .37300003 .786 .358 C .78400002 .34300003 .78000002 .32700003 .777 .31 L .70500002 0 L .796 0 L .878 .354 C .88100005 .36600004 .883 .37800003 .88500004 .39000001 C .88600006 .402 .887 .41400004 .887 .42400003 C .887 .467 .87500008 .50100003 .851 .52400007 Z "
       id="path132" />
  </symbol>
  <symbol
     id="font_1_1">
    <path
       d="M .558 .712 C .531 .745 .49 .76100006 .437 .76100006 C .402 .76100006 .36900001 .75400009 .34 .74100008 C .31100002 .727 .28100003 .71000004 .25100003 .689 L .264 .74600006 L .17200002 .74600006 L 0 0 L .09200001 0 L .14500001 .229 C .16500002 .216 .187 .207 .21200001 .2 C .236 .193 .263 .19 .292 .19 C .33400002 .19 .374 .2 .411 .22 C .448 .23900001 .48000002 .266 .508 .3 C .536 .333 .558 .374 .57500005 .421 C .592 .469 .6 .52 .6 .574 C .6 .633 .586 .679 .558 .712 M .49100004 .448 C .48200002 .41500001 .46800003 .384 .45000001 .357 C .432 .33100004 .41000004 .31 .38300002 .293 C .356 .277 .326 .269 .292 .269 C .26500001 .269 .24200001 .272 .222 .277 C .20300001 .283 .183 .291 .162 .303 L .23300001 .612 C .25800002 .62900009 .285 .64400006 .314 .65700007 C .343 .67 .37100003 .67700005 .398 .67700005 C .43600002 .67700005 .46300002 .66700006 .48000002 .646 C .497 .625 .50500007 .595 .50500007 .556 C .50500007 .518 .50000005 .48200002 .49100004 .448 Z "
       id="path135" />
  </symbol>
  <symbol
     id="font_1_2">
    <path
       d="M .462 .53900004 C .448 .541 .43800002 .54300004 .43100003 .544 C .423 .545 .412 .545 .396 .545 C .368 .545 .33900002 .53900004 .30900002 .527 C .279 .51600004 .24200003 .49500003 .19800002 .46500004 L .21700002 .545 L .124000009 .545 L 0 0 L .093 0 L .18100001 .38700003 C .20800002 .407 .237 .423 .268 .437 C .298 .45100003 .328 .45800004 .359 .45800004 C .375 .45800004 .388 .45700002 .4 .45600004 C .411 .45400004 .423 .45200003 .43600002 .44900003 L .441 .44900003 L .462 .53900004 Z "
       id="path138" />
  </symbol>
  <symbol
     id="font_1_5">
    <path
       d="M .37200003 .149 C .34500003 .13100001 .316 .115 .286 .102000009 C .25500002 .089 .22500003 .082 .19500003 .082 C .162 .082 .137 .08800001 .121 .1 C .105000007 .113000009 .097 .13100001 .097 .15400002 C .097 .18100001 .104 .20400001 .117000009 .22200002 C .13100001 .24100001 .151 .255 .17700002 .26600004 C .20300001 .277 .23500002 .28500004 .27300003 .291 C .31200004 .296 .35700002 .3 .40700003 .302 L .37200003 .149 M .34100003 .015000001 L .43200005 .015000001 L .518 .385 C .52000003 .394 .521 .40400005 .52300005 .41300006 C .52400007 .42300005 .52500005 .43300004 .52500005 .44200002 C .52500005 .48800003 .508 .521 .47400003 .542 C .44000002 .563 .39000001 .574 .32200003 .574 C .28900004 .574 .254 .57100006 .21900001 .565 C .183 .558 .15600002 .55300003 .137 .54800005 L .11900001 .45600004 L .124000009 .45600004 C .146 .46500004 .17500001 .47400003 .21000001 .48300005 C .24600002 .49200005 .27800003 .49700003 .305 .49700003 C .32400003 .49700003 .34000004 .49600006 .35500002 .49400001 C .37100003 .49200005 .38400004 .48800003 .39500003 .482 C .40700003 .476 .41600004 .468 .42200003 .458 C .42800003 .448 .43100003 .435 .43100003 .42000003 C .43100003 .412 .43000003 .40600003 .42900001 .399 C .42700001 .39200001 .42500005 .384 .42300005 .375 C .35700002 .37300003 .298 .36800004 .24600002 .36 C .194 .351 .15 .338 .113 .319 C .076000004 .3 .048 .27600003 .029 .246 C .01 .21700001 0 .18 0 .13700001 C 0 .096 .013999999 .063 .041 .038000002 C .068 .013 .10300001 0 .146 0 C .17300001 0 .19600001 .0030000005 .21700001 .008 C .23700002 .013 .256 .019000001 .272 .026 C .28800002 .033 .30300003 .041 .31800003 .051000004 C .33400002 .061000004 .34600001 .068 .35400004 .073 L .34100003 .015000001 Z "
       id="path141" />
  </symbol>
  <symbol
     id="font_1_4">
    <path
       d="M .453 .56 L .36 .15300001 C .333 .135 .305 .119 .27400003 .105000007 C .243 .091000004 .215 .08400001 .19100001 .08400001 C .157 .08400001 .133 .091000004 .119 .105000007 C .105000007 .119 .098000002 .14 .098000002 .16800001 C .098000002 .177 .09900001 .19000001 .102 .20600002 C .104 .223 .10700001 .23700002 .11 .25 L .18100001 .56 L .089 .56 L .008000001 .20600002 C .0059999972 .193 .0040000005 .18100001 .0020000003 .171 C .001000002 .16000001 0 .15 0 .139 C 0 .093 .013000004 .059000005 .04 .035000005 C .066 .012 .102 0 .149 0 C .18300002 0 .21400002 .007 .245 .020000002 C .275 .033 .307 .052 .342 .076000004 L .328 .015000001 L .42000003 .015000001 L .545 .56 L .453 .56 Z "
       id="path144" />
  </symbol>
  <use
     xlink:href="#font_1_3"
     transform="matrix(0,-12,-12,0,10.7472,102.784)"
     fill="rgb(35,31,32)"
     id="use147" />
  <use
     xlink:href="#font_1_7"
     transform="matrix(0,-12,-12,0,10.7712,98.2960023)"
     fill="rgb(35,31,32)"
     id="use149" />
  <use
     xlink:href="#font_1_a"
     transform="matrix(0,-12,-12,0,10.6152,91.336)"
     fill="rgb(35,31,32)"
     id="use151" />
  <use
     xlink:href="#font_1_1"
     transform="matrix(0,-12,-12,0,13.0272,80.21199)"
     fill="rgb(35,31,32)"
     id="use153" />
  <use
     xlink:href="#font_1_7"
     transform="matrix(0,-12,-12,0,10.7712,71.992)"
     fill="rgb(35,31,32)"
     id="use155" />
  <use
     xlink:href="#font_1_2"
     transform="matrix(0,-12,-12,0,10.6152,65.03199)"
     fill="rgb(35,31,32)"
     id="use157" />
  <use
     xlink:href="#font_1_5"
     transform="matrix(0,-12,-12,0,10.7952,60.003995)"
     fill="rgb(35,31,32)"
     id="use159" />
  <use
     xlink:href="#font_1_3"
     transform="matrix(0,-12,-12,0,10.7472,52.26399)"
     fill="rgb(35,31,32)"
     id="use161" />
  <use
     xlink:href="#font_1_4"
     transform="matrix(0,-12,-12,0,10.7952,47.57199)"
     fill="rgb(35,31,32)"
     id="use163" />
  <use
     xlink:href="#font_1_4"
     transform="matrix(0,-12,-12,0,10.7952,39.975998)"
     fill="rgb(35,31,32)"
     id="use165" />
  <use
     xlink:href="#font_1_2"
     transform="matrix(0,-12,-12,0,10.6152,32.776006)"
     fill="rgb(35,31,32)"
     id="use167" />
  <text
     fill="rgb(35,31,32)"
     fill-opacity="0"
     transform="matrix(0,-1,1,0,0,206.93)"
     font-size="10"
     font-family="EDMHTJ+Verdana"
     x=" y="
     id="text169" />
  <use
     xlink:href="#font_0_d"
     transform="matrix(0,-10,-10,0,10.6152,27.995087)"
     fill="rgb(35,31,32)"
     id="use171" />
  <text
     fill="rgb(35,31,32)"
     fill-opacity="0"
     transform="matrix(0,-1,1,0,0,206.93)"
     font-size="12"
     font-family="EDMHTJ+Verdana"
     x="182.45053 187.89853 192.12253 200.49854"
     y="10.6152 10.6152 10.6152 10.6152"
     id="text173">
( C)
</text>
  <symbol
     id="font_0_2">
    <path
       d="M .60300007 .179 L .596 .179 C .56100007 .147 .52300005 .12400001 .48200006 .10800001 C .441 .09200001 .39800004 .08400001 .351 .08400001 C .31700004 .08400001 .28500004 .09 .25500002 .10100001 C .22500003 .113000009 .19800002 .13100001 .17500001 .155 C .153 .178 .136 .207 .122 .244 C .108 .28100003 .101 .32400003 .101 .37500003 C .101 .42400003 .107 .46700005 .12000001 .504 C .132 .541 .15 .572 .17200002 .596 C .19500003 .62100006 .22200003 .63900004 .25100003 .651 C .28000002 .66300006 .314 .669 .35000003 .669 C .39500003 .669 .43700004 .661 .47700005 .646 C .51600004 .63100005 .55600005 .60700007 .596 .57400008 L .60300007 .57400008 L .60300007 .68900009 C .555 .71300006 .512 .72900005 .47300005 .739 C .43400002 .748 .39500003 .753 .35600005 .753 C .30300003 .753 .254 .74500008 .21100002 .72800007 C .167 .7120001 .13 .68700004 .099 .656 C .067 .623 .042000003 .58300009 .024999998 .536 C .008000001 .48900003 0 .43600002 0 .37600003 C 0 .31300002 .009000003 .25700002 .026 .21000001 C .044 .162 .068 .12300001 .1 .09200001 C .132 .060000001 .169 .037 .21200001 .022 C .25500002 .007 .30300003 0 .35600005 0 C .38400004 0 .41000004 .0019999995 .43300004 .007 C .45600004 .011 .47800005 .016 .49800004 .022 C .521 .030000001 .54 .037 .554 .044 C .569 .051000004 .58500004 .058000002 .60300007 .066 L .60300007 .179 Z "
       id="path175" />
  </symbol>
  <use
     xlink:href="#font_0_5"
     transform="matrix(0,-12,-12,0,13.0272,23.423462)"
     fill="rgb(35,31,32)"
     id="use178" />
  <use
     xlink:href="#font_0_d"
     transform="matrix(0,-12,-12,0,10.6152,19.031464)"
     fill="rgb(35,31,32)"
     id="use180" />
  <use
     xlink:href="#font_0_2"
     transform="matrix(0,-12,-12,0,10.7712,14.135465)"
     fill="rgb(35,31,32)"
     id="use182" />
  <use
     xlink:href="#font_0_6"
     transform="matrix(0,-12,-12,0,13.0272,5.5674577)"
     fill="rgb(35,31,32)"
     id="use184" />
  <text
     fill="rgb(35,31,32)"
     fill-opacity="0"
     transform="matrix(1,0,0,1,0,206.93)"
     font-size="12"
     font-family="EDMHTJ+Verdana"
     x="30.6152 42.732004 98.9988 127.005841 154.99884 179.99881 187.63081 207.99806 215.63006 237.15195 244.78395 264.99808 272.63008 292.99801 300.63 322.998 330.62997 350.99793 358.6299 378.99786 386.62985"
     y="-29.5211 -19.503899 -19.503899 -19.503899 -19.503899 -19.503899 -19.503899 -19.503899 -19.503899 -19.503899 -19.503899 -19.503899 -19.503899 -19.503899 -19.503899 -19.503899 -19.503899 -19.503899 -19.503899 -19.503899 -19.503899"
     id="text186">
004681012141618202224
</text>
  <symbol
     id="font_0_a">
    <path
       d="M .55 .28300002 L .44200002 .28300002 L .44200002 .72700005 L .352 .72700005 L 0 .317 L 0 .20500002 L .348 .20500002 L .348 0 L .44200002 0 L .44200002 .20500002 L .55 .20500002 L .55 .28300002 M .067 .28300002 L .348 .61 L .348 .28300002 L .067 .28300002 Z "
       id="path188" />
  </symbol>
  <symbol
     id="font_0_c">
    <path
       d="M .493 .362 C .479 .39200001 .45700006 .417 .42900001 .43700004 C .404 .454 .38000002 .46600003 .356 .47100001 C .33200002 .477 .305 .48000002 .27400003 .48000002 C .23900002 .48000002 .20900002 .476 .18200001 .467 C .156 .458 .12900001 .44600005 .10100001 .42900001 C .10800001 .504 .133 .563 .17400001 .606 C .21600002 .65000005 .272 .672 .342 .672 C .36100004 .672 .38000002 .67 .39800004 .666 C .416 .661 .43 .657 .43900004 .652 L .44400005 .652 L .44400005 .745 C .43100003 .749 .41700002 .75200005 .404 .754 C .39100004 .755 .37500003 .75600005 .356 .75600005 C .296 .75600005 .243 .746 .19800002 .725 C .15300001 .704 .11600001 .676 .08700001 .639 C .057000003 .6 .035000005 .556 .021000006 .50600005 C .0069999991 .45600004 0 .399 0 .33500004 C 0 .272 .008000001 .21800001 .023000002 .17300001 C .038000002 .12900001 .059 .093 .08700001 .066 C .11 .044 .136 .028 .165 .017 C .194 .006 .227 0 .263 0 C .33400002 0 .393 .023000002 .442 .07000001 C .49100004 .117000009 .515 .177 .515 .25100003 C .515 .29500003 .508 .33100004 .493 .362 M .37500003 .124000009 C .34800003 .095000009 .31100002 .081 .26400004 .081 C .24400002 .081 .22500003 .08400001 .20700002 .091000004 C .19 .098000002 .17400001 .108 .15900001 .12200001 C .14000001 .139 .125 .163 .11500001 .192 C .104 .22200002 .09900001 .26200003 .09900001 .314 C .09900001 .324 .09900001 .33200002 .09900001 .339 C .10000001 .34500003 .10000001 .352 .10100001 .35900002 C .126 .37300003 .15 .38300002 .17400001 .389 C .19800002 .39600003 .224 .399 .25100003 .399 C .27100003 .399 .29000001 .397 .30900002 .394 C .32700003 .39100004 .34300003 .384 .358 .374 C .379 .35900002 .39400003 .342 .40300003 .32200003 C .41200004 .30300003 .416 .278 .416 .24800001 C .416 .194 .402 .15300001 .37500003 .124000009 Z "
       id="path191" />
  </symbol>
  <symbol
     id="font_0_e">
    <path
       d="M .48000002 .329 C .45600004 .358 .42100004 .382 .37600003 .401 L .37600003 .404 C .41500001 .42200003 .445 .447 .46600003 .479 C .486 .51100006 .49600006 .54300004 .49600006 .57600003 C .49600006 .63000007 .47400003 .674 .43100003 .70900007 C .388 .7440001 .33 .76100006 .25800002 .76100006 C .18900001 .76100006 .132 .74300004 .087 .70600005 C .042000003 .6700001 .020000003 .6240001 .020000003 .56900006 C .020000003 .53200007 .029 .50100003 .048 .477 C .067 .45200003 .095 .42900001 .134 .40800003 L .134 .405 C .09200001 .386 .059 .36 .035000005 .327 C .012000002 .294 0 .25800002 0 .21800001 C 0 .15400002 .023000002 .102 .07000001 .061000004 C .117 .020000002 .179 0 .25800002 0 C .33200002 0 .39400003 .021000002 .44300003 .06300001 C .49200005 .104 .51600004 .157 .51600004 .21900001 C .51600004 .264 .504 .3 .48000002 .329 M .38200002 .495 C .37 .472 .34800003 .449 .316 .428 C .294 .43400002 .272 .442 .25 .451 C .227 .46100002 .21000001 .46800003 .19800002 .474 C .172 .488 .15200001 .503 .13900002 .52000003 C .126 .53700008 .119 .558 .119 .58100005 C .119 .614 .132 .64100004 .158 .6610001 C .18400002 .68000007 .21700001 .69000006 .25800002 .69000006 C .29900003 .69000006 .333 .68000007 .36 .65900002 C .38700003 .6380001 .4 .6100001 .4 .57500005 C .4 .545 .39400003 .51800008 .38200002 .495 M .372 .11 C .344 .08500001 .30600002 .073 .259 .073 C .213 .073 .17400001 .087 .14400001 .11600001 C .11400001 .14500001 .09900001 .18100001 .09900001 .22500001 C .09900001 .259 .10800001 .29 .125 .31800003 C .143 .345 .16600001 .367 .19600001 .38300002 C .22600001 .372 .25 .363 .268 .357 C .286 .351 .303 .344 .31800003 .337 C .356 .319 .38200002 .3 .395 .282 C .40800003 .264 .41500001 .24000001 .41500001 .21000001 C .41500001 .16800001 .40100003 .134 .372 .11 Z "
       id="path194" />
  </symbol>
  <use
     xlink:href="#font_0_7"
     transform="matrix(12,0,0,-12,31.4192,177.58889)"
     fill="rgb(35,31,32)"
     id="use197" />
  <use
     xlink:href="#font_0_7"
     transform="matrix(12,0,0,-12,43.536005,187.60608)"
     fill="rgb(35,31,32)"
     id="use199" />
  <use
     xlink:href="#font_0_a"
     transform="matrix(12,0,0,-12,99.4548,187.42609)"
     fill="rgb(35,31,32)"
     id="use201" />
  <use
     xlink:href="#font_0_c"
     transform="matrix(12,0,0,-12,127.809846,187.60608)"
     fill="rgb(35,31,32)"
     id="use203" />
  <use
     xlink:href="#font_0_e"
     transform="matrix(12,0,0,-12,155.71884,187.63008)"
     fill="rgb(35,31,32)"
     id="use205" />
  <use
     xlink:href="#font_0_8"
     transform="matrix(12,0,0,-12,181.63082,187.42609)"
     fill="rgb(35,31,32)"
     id="use207" />
  <use
     xlink:href="#font_0_7"
     transform="matrix(12,0,0,-12,188.43482,187.60608)"
     fill="rgb(35,31,32)"
     id="use209" />
  <use
     xlink:href="#font_0_8"
     transform="matrix(12,0,0,-12,209.63007,187.42609)"
     fill="rgb(35,31,32)"
     id="use211" />
  <use
     xlink:href="#font_0_9"
     transform="matrix(12,0,0,-12,216.57806,187.42609)"
     fill="rgb(35,31,32)"
     id="use213" />
  <use
     xlink:href="#font_0_8"
     transform="matrix(12,0,0,-12,238.78395,187.42609)"
     fill="rgb(35,31,32)"
     id="use215" />
  <use
     xlink:href="#font_0_a"
     transform="matrix(12,0,0,-12,245.23995,187.42609)"
     fill="rgb(35,31,32)"
     id="use217" />
  <use
     xlink:href="#font_0_8"
     transform="matrix(12,0,0,-12,266.63006,187.42609)"
     fill="rgb(35,31,32)"
     id="use219" />
  <use
     xlink:href="#font_0_c"
     transform="matrix(12,0,0,-12,273.43405,187.60608)"
     fill="rgb(35,31,32)"
     id="use221" />
  <use
     xlink:href="#font_0_8"
     transform="matrix(12,0,0,-12,294.63,187.42609)"
     fill="rgb(35,31,32)"
     id="use223" />
  <use
     xlink:href="#font_0_e"
     transform="matrix(12,0,0,-12,301.35,187.63008)"
     fill="rgb(35,31,32)"
     id="use225" />
  <use
     xlink:href="#font_0_9"
     transform="matrix(12,0,0,-12,323.94599,187.42609)"
     fill="rgb(35,31,32)"
     id="use227" />
  <use
     xlink:href="#font_0_7"
     transform="matrix(12,0,0,-12,331.43397,187.60608)"
     fill="rgb(35,31,32)"
     id="use229" />
  <use
     xlink:href="#font_0_9"
     transform="matrix(12,0,0,-12,351.94593,187.42609)"
     fill="rgb(35,31,32)"
     id="use231" />
  <use
     xlink:href="#font_0_9"
     transform="matrix(12,0,0,-12,359.5779,187.42609)"
     fill="rgb(35,31,32)"
     id="use233" />
  <use
     xlink:href="#font_0_9"
     transform="matrix(12,0,0,-12,379.94586,187.42609)"
     fill="rgb(35,31,32)"
     id="use235" />
  <use
     xlink:href="#font_0_a"
     transform="matrix(12,0,0,-12,387.08584,187.42609)"
     fill="rgb(35,31,32)"
     id="use237" />
  <text
     fill="rgb(35,31,32)"
     fill-opacity="0"
     transform="matrix(0,-1,1,0,0,206.93)"
     font-size="8"
     font-family="EDMHTJ+Verdana"
     x="186.577"
     y="5.81406"
     id="text239">
o
</text>
  <symbol
     id="font_0_1">
    <path
       d="M .435 .49800004 C .389 .549 .328 .575 .25200004 .575 C .17500001 .575 .113000009 .549 .068 .49800004 C .023000002 .44600005 0 .37600005 0 .287 C 0 .19800002 .023000002 .128 .068 .07700001 C .113000009 .026 .17500001 0 .25200004 0 C .328 0 .389 .026 .435 .07700001 C .48000002 .128 .503 .19800002 .503 .287 C .503 .37600005 .48000002 .44600005 .435 .49800004 M .366 .132 C .33900004 .097 .3 .080000009 .25200004 .080000009 C .202 .080000009 .164 .098000002 .136 .13300002 C .10900001 .16800001 .095 .21900001 .095 .287 C .095 .357 .10900001 .41000004 .136 .444 C .164 .47800005 .202 .495 .25200004 .495 C .301 .495 .33900004 .47800005 .36700005 .444 C .394 .41000004 .408 .357 .408 .287 C .408 .21900001 .394 .16700001 .366 .132 Z "
       id="path241" />
  </symbol>
  <use
     xlink:href="#font_0_1"
     transform="matrix(0,-8,-8,0,5.93406,19.936997)"
     fill="rgb(35,31,32)"
     id="use244" />
  <path
     transform="matrix(.1,0,0,-.1,0,206.93)"
     d="M 482.41 329.809 C 482.41 315.719 470.996 304.289 456.902 304.289 C 442.809 304.289 431.391 315.719 431.391 329.809 C 431.391 343.91 442.809 355.32 456.902 355.32 C 470.996 355.32 482.41 343.91 482.41 329.809 "
     fill="rgb(35,31,32)"
     id="path248" />
  <path
     transform="matrix(.1,0,0,-.1,0,206.93)"
     d="M 765.871 327.891 C 765.871 313.801 754.461 302.379 740.371 302.379 C 726.27 302.379 714.852 313.801 714.852 327.891 C 714.852 342 726.27 353.398 740.371 353.398 C 754.461 353.398 765.871 342 765.871 327.891 "
     fill="rgb(35,31,32)"
     id="path250" />
  <path
     transform="matrix(.1,0,0,-.1,0,206.93)"
     d="M 1049.34 327.891 C 1049.34 313.801 1037.92 302.379 1023.83 302.379 C 1009.74 302.379 998.32 313.801 998.32 327.891 C 998.32 342 1009.74 353.398 1023.83 353.398 C 1037.92 353.398 1049.34 342 1049.34 327.891 "
     fill="rgb(35,31,32)"
     id="path252" />
  <path
     transform="matrix(.1,0,0,-.1,0,206.93)"
     d="M 1332.8 327.891 C 1332.8 313.801 1321.38 302.379 1307.29 302.379 C 1293.2 302.379 1281.77 313.801 1281.77 327.891 C 1281.77 342 1293.2 353.398 1307.29 353.398 C 1321.38 353.398 1332.8 342 1332.8 327.891 "
     fill="rgb(35,31,32)"
     id="path254" />
  <path
     transform="matrix(.1,0,0,-.1,0,206.93)"
     d="M 1616.65 328.641 C 1616.65 314.539 1605.23 303.121 1591.14 303.121 C 1577.05 303.121 1565.63 314.539 1565.63 328.641 C 1565.63 342.738 1577.05 354.141 1591.14 354.141 C 1605.23 354.141 1616.65 342.738 1616.65 328.641 "
     fill="rgb(35,31,32)"
     id="path256" />
  <path
     transform="matrix(.1,0,0,-.1,0,206.93)"
     d="M 1899.73 327.891 C 1899.73 313.801 1888.31 302.379 1874.22 302.379 C 1860.13 302.379 1848.7 313.801 1848.7 327.891 C 1848.7 342 1860.13 353.398 1874.22 353.398 C 1888.31 353.398 1899.73 342 1899.73 327.891 "
     fill="rgb(35,31,32)"
     id="path258" />
  <path
     transform="matrix(.1,0,0,-.1,0,206.93)"
     d="M 2183.18 327.891 C 2183.18 313.801 2171.77 302.379 2157.68 302.379 C 2143.58 302.379 2132.16 313.801 2132.16 327.891 C 2132.16 342 2143.58 353.398 2157.68 353.398 C 2171.77 353.398 2183.18 342 2183.18 327.891 "
     fill="rgb(35,31,32)"
     id="path260" />
  <path
     transform="matrix(.1,0,0,-.1,0,206.93)"
     d="M 2467.05 328.641 C 2467.05 314.539 2455.63 303.121 2441.54 303.121 C 2427.45 303.121 2416.03 314.539 2416.03 328.641 C 2416.03 342.738 2427.45 354.141 2441.54 354.141 C 2455.63 354.141 2467.05 342.738 2467.05 328.641 "
     fill="rgb(35,31,32)"
     id="path262" />
  <path
     transform="matrix(.1,0,0,-.1,0,206.93)"
     d="M 2750.51 328.641 C 2750.51 314.539 2739.09 303.121 2725 303.121 C 2710.91 303.121 2699.48 314.539 2699.48 328.641 C 2699.48 342.738 2710.91 354.141 2725 354.141 C 2739.09 354.141 2750.51 342.738 2750.51 328.641 "
     fill="rgb(35,31,32)"
     id="path264" />
  <path
     transform="matrix(.1,0,0,-.1,0,206.93)"
     d="M 3033.98 328.641 C 3033.98 314.539 3022.57 303.121 3008.48 303.121 C 2994.38 303.121 2982.96 314.539 2982.96 328.641 C 2982.96 342.738 2994.38 354.141 3008.48 354.141 C 3022.57 354.141 3033.98 342.738 3033.98 328.641 "
     fill="rgb(35,31,32)"
     id="path266" />
  <path
     transform="matrix(.1,0,0,-.1,0,206.93)"
     d="M 3317.44 328.641 C 3317.44 314.539 3306.03 303.121 3291.93 303.121 C 3277.84 303.121 3266.42 314.539 3266.42 328.641 C 3266.42 342.738 3277.84 354.141 3291.93 354.141 C 3306.03 354.141 3317.44 342.738 3317.44 328.641 "
     fill="rgb(35,31,32)"
     id="path268" />
  <path
     transform="matrix(.1,0,0,-.1,0,206.93)"
     d="M 3599.2 327.891 C 3599.2 313.801 3587.78 302.379 3573.69 302.379 C 3559.6 302.379 3548.17 313.801 3548.17 327.891 C 3548.17 342 3559.6 353.398 3573.69 353.398 C 3587.78 353.398 3599.2 342 3599.2 327.891 "
     fill="rgb(35,31,32)"
     id="path270" />
  <path
     transform="matrix(.1,0,0,-.1,0,206.93)"
     d="M 3882.66 325.641 C 3882.66 311.551 3871.24 300.121 3857.15 300.121 C 3843.06 300.121 3831.63 311.551 3831.63 325.641 C 3831.63 339.738 3843.06 351.148 3857.15 351.148 C 3871.24 351.148 3882.66 339.738 3882.66 325.641 "
     fill="rgb(35,31,32)"
     id="path272" />
  <path
     transform="matrix(.1,0,0,-.1,0,206.93)"
     d="M 482.41 611.352 C 482.41 597.262 470.996 585.828 456.902 585.828 C 442.813 585.828 431.387 597.262 431.387 611.352 C 431.387 625.449 442.813 636.859 456.902 636.859 C 470.996 636.859 482.41 625.449 482.41 611.352 "
     fill="rgb(35,31,32)"
     id="path274" />
  <path
     transform="matrix(.1,0,0,-.1,0,206.93)"
     d="M 482.41 894.827948 C 482.41 880.738 470.996 869.309 456.902 869.309 C 442.813 869.309 431.387 880.738 431.387 894.827948 C 431.387 908.93 442.813 920.328 456.902 920.328 C 470.996 920.328 482.41 908.93 482.41 894.827948 "
     fill="rgb(35,31,32)"
     id="path276" />
  <path
     transform="matrix(.1,0,0,-.1,0,206.93)"
     d="M 482.41 1178.28 C 482.41 1164.19 470.996 1152.76 456.902 1152.76 C 442.813 1152.76 431.387 1164.19 431.387 1178.28 C 431.387 1192.38 442.813 1203.79 456.902 1203.79 C 470.996 1203.79 482.41 1192.38 482.41 1178.28 "
     fill="rgb(35,31,32)"
     id="path278" />
  <path
     transform="matrix(.1,0,0,-.1,0,206.93)"
     d="M 482.41 1461.75 C 482.41 1447.65 470.996 1436.23 456.902 1436.23 C 442.813 1436.23 431.387 1447.65 431.387 1461.75 C 431.387 1475.85 442.813 1487.25 456.902 1487.25 C 470.996 1487.25 482.41 1475.85 482.41 1461.75 "
     fill="rgb(35,31,32)"
     id="path280" />
  <path
     transform="matrix(.1,0,0,-.1,0,206.93)"
     d="M 482.41 1745.21 C 482.41 1731.12 470.996 1719.69 456.902 1719.69 C 442.813 1719.69 431.387 1731.12 431.387 1745.21 C 431.387 1759.31 442.813 1770.71 456.902 1770.71 C 470.996 1770.71 482.41 1759.31 482.41 1745.21 "
     fill="rgb(35,31,32)"
     id="path282" />
  <path
     transform="matrix(.1,0,0,-.1,0,206.93)"
     d="M 485.507975 2024.3 C 485.507975 2010.21 474.094 1998.78 460 1998.78 C 445.906 1998.78 434.48 2010.21 434.48 2024.3 C 434.48 2038.4 445.906 2049.81 460 2049.81 C 474.094 2049.81 485.507975 2038.4 485.507975 2024.3 "
     fill="rgb(35,31,32)"
     id="path284" />
  <path
     inkscape:connector-curvature="0"
     id="path434"
     d="m 46.443243,135.82163 c 0,0 48.253611,17.52003 56.535737,17.52003 10.93132,0 28.27475,-13.2979 28.27475,-13.2979 0,0 15.66135,-11.38041 28.27017,-11.38041 12.60881,0 21.48219,-12.94297 28.27473,-20.97702 22.90763,-27.102809 38.66982,-39.84298 56.54033,-57.303083 13.53465,-13.224142 20.34094,-24.235822 29.14099,-24.235822 10.29423,0 20.71221,10.29262 27.39933,16.344663 7.05838,6.388517 20.53346,18.340492 28.27474,27.531477 38.04647,45.222045 56.54034,53.173135 56.54034,53.173135"
     style="fill:none;stroke:#d11e26;stroke-width:1.76498783;stroke-linecap:butt;stroke-linejoin:miter;stroke-miterlimit:10;stroke-opacity:1" />
  <path
     inkscape:connector-curvature="0"
     id="path436"
     d="m 48.936591,135.82163 c 0,1.38741 -1.11834,2.51207 -2.493348,2.51207 -1.379591,0 -2.497932,-1.12466 -2.497932,-2.51207 0,-1.3828 1.118341,-2.50747 2.497932,-2.50747 1.375008,0 2.493348,1.12467 2.493348,2.50747"
     style="fill:#211e1e;fill-opacity:1;fill-rule:nonzero;stroke:none;stroke-width:1.17665839" />
  <path
     inkscape:connector-curvature="0"
     id="path438"
     d="m 77.206753,145.38598 c 0,1.38741 -1.11834,2.51207 -2.493347,2.51207 -1.379591,0 -2.497934,-1.12466 -2.497934,-2.51207 0,-1.38281 1.118343,-2.50746 2.497934,-2.50746 1.375007,0 2.493347,1.12465 2.493347,2.50746"
     style="fill:#211e1e;fill-opacity:1;fill-rule:nonzero;stroke:none;stroke-width:1.17665839" />
  <path
     inkscape:connector-curvature="0"
     id="path440"
     d="m 105.47233,153.34166 c 0,1.3874 -1.11834,2.51208 -2.49335,2.51208 -1.37959,0 -2.49793,-1.12468 -2.49793,-2.51208 0,-1.3828 1.11834,-2.50748 2.49793,-2.50748 1.37501,0 2.49335,1.12468 2.49335,2.50748"
     style="fill:#211e1e;fill-opacity:1;fill-rule:nonzero;stroke:none;stroke-width:1.17665839" />
  <path
     inkscape:connector-curvature="0"
     id="path442"
     d="m 133.74707,140.04376 c 0,1.38281 -1.11375,2.50749 -2.49334,2.50749 -1.37959,0 -2.49334,-1.12468 -2.49334,-2.50749 0,-1.38279 1.11375,-2.50747 2.49334,-2.50747 1.37959,0 2.49334,1.12468 2.49334,2.50747"
     style="fill:#211e1e;fill-opacity:1;fill-rule:nonzero;stroke:none;stroke-width:1.17665839" />
  <path
     inkscape:connector-curvature="0"
     id="path444"
     d="m 162.01723,128.66335 c 0,1.3874 -1.11374,2.50747 -2.49333,2.50747 -1.37503,0 -2.49335,-1.12007 -2.49335,-2.50747 0,-1.38279 1.11832,-2.50747 2.49335,-2.50747 1.37959,0 2.49333,1.12468 2.49333,2.50747"
     style="fill:#211e1e;fill-opacity:1;fill-rule:nonzero;stroke:none;stroke-width:1.17665839" />
  <path
     inkscape:connector-curvature="0"
     id="path446"
     d="m 190.29197,107.68633 c 0,1.38741 -1.11832,2.50747 -2.49334,2.50747 -1.3796,0 -2.49792,-1.12006 -2.49792,-2.50747 0,-1.3828 1.11832,-2.50747 2.49792,-2.50747 1.37502,0 2.49334,1.12467 2.49334,2.50747"
     style="fill:#211e1e;fill-opacity:1;fill-rule:nonzero;stroke:none;stroke-width:1.17665839" />
  <path
     inkscape:connector-curvature="0"
     id="path448"
     d="m 218.56213,77.14497 c 0,1.382791 -1.11832,2.507471 -2.49333,2.507471 -1.3796,0 -2.49335,-1.12468 -2.49335,-2.507471 0,-1.387416 1.11375,-2.512085 2.49335,-2.512085 1.37501,0 2.49333,1.124669 2.49333,2.512085"
     style="fill:#211e1e;fill-opacity:1;fill-rule:nonzero;stroke:none;stroke-width:1.17665839" />
  <path
     inkscape:connector-curvature="0"
     id="path450"
     d="m 275.10246,26.147431 c 0,1.382796 -1.11374,2.507471 -2.49334,2.507471 -1.3796,0 -2.49336,-1.124675 -2.49336,-2.507471 0,-1.387406 1.11376,-2.507471 2.49336,-2.507471 1.3796,0 2.49334,1.120065 2.49334,2.507471"
     style="fill:#211e1e;fill-opacity:1;fill-rule:nonzero;stroke:none;stroke-width:1.17665839" />
  <path
     inkscape:connector-curvature="0"
     id="path452"
     d="m 246.8323,50.383245 c 0,1.387405 -1.11834,2.512078 -2.49334,2.512078 -1.3796,0 -2.49792,-1.124673 -2.49792,-2.512078 0,-1.382798 1.11832,-2.507471 2.49792,-2.507471 1.375,0 2.49334,1.124673 2.49334,2.507471"
     style="fill:#211e1e;fill-opacity:1;fill-rule:nonzero;stroke:none;stroke-width:1.17665839" />
  <path
     inkscape:connector-curvature="0"
     id="path454"
     d="m 303.37721,42.492085 c 0,1.387405 -1.11832,2.512081 -2.49793,2.512081 -1.37501,0 -2.49335,-1.124676 -2.49335,-2.512081 0,-1.382797 1.11834,-2.50747 2.49335,-2.50747 1.37961,0 2.49793,1.124673 2.49793,2.50747"
     style="fill:#211e1e;fill-opacity:1;fill-rule:nonzero;stroke:none;stroke-width:1.17665839" />
  <path
     inkscape:connector-curvature="0"
     id="path456"
     d="m 331.64737,70.023562 c 0,1.387406 -1.11832,2.512082 -2.49335,2.512082 -1.37959,0 -2.49793,-1.124676 -2.49793,-2.512082 0,-1.382796 1.11834,-2.50747 2.49793,-2.50747 1.37503,0 2.49335,1.124674 2.49335,2.50747"
     style="fill:#211e1e;fill-opacity:1;fill-rule:nonzero;stroke:none;stroke-width:1.17665839" />
  <path
     inkscape:connector-curvature="0"
     id="path458"
     d="m 359.91753,100.86454 c 0,1.3874 -1.11832,2.50747 -2.49792,2.50747 -1.37501,0 -2.49336,-1.12007 -2.49336,-2.50747 0,-1.382806 1.11835,-2.507475 2.49336,-2.507475 1.3796,0 2.49792,1.124669 2.49792,2.507475"
     style="fill:#211e1e;fill-opacity:1;fill-rule:nonzero;stroke:none;stroke-width:1.17665839" />
  <path
     inkscape:connector-curvature="0"
     id="path460"
     d="m 388.1877,123.1967 c 0,1.38279 -1.11834,2.50747 -2.49334,2.50747 -1.3796,0 -2.49795,-1.12468 -2.49795,-2.50747 0,-1.38741 1.11835,-2.51209 2.49795,-2.51209 1.375,0 2.49334,1.12468 2.49334,2.51209"
     style="fill:#211e1e;fill-opacity:1;fill-rule:nonzero;stroke:none;stroke-width:1.17665839" />
</svg>
